<svg width="1200" height="700" viewBox="0 0 1200 700" xmlns="http://www.w3.org/2000/svg" role="img" aria-label="Campus placement illustration">
  <defs>
    <linearGradient id="bgGrad" x1="0" y1="0" x2="1" y2="1">
      <stop offset="0%" stop-color="#eaf2ff"/>
      <stop offset="100%" stop-color="#e8fff7"/>
    </linearGradient>
    <linearGradient id="floorGrad" x1="0" y1="0" x2="1" y2="0">
      <stop offset="0%" stop-color="#1e40af"/>
      <stop offset="100%" stop-color="#0f766e"/>
    </linearGradient>
    <filter id="softShadow" x="-20%" y="-20%" width="140%" height="140%">
      <feDropShadow dx="0" dy="8" stdDeviation="12" flood-color="#0f172a" flood-opacity="0.2"/>
    </filter>
  </defs>

  <rect width="1200" height="700" fill="url(#bgGrad)"/>
  <circle cx="190" cy="120" r="70" fill="#bfdbfe" opacity="0.5"/>
  <circle cx="1060" cy="110" r="80" fill="#a7f3d0" opacity="0.45"/>

  <ellipse cx="600" cy="600" rx="440" ry="70" fill="url(#floorGrad)" opacity="0.85"/>

  <g filter="url(#softShadow)">
    <rect x="460" y="170" width="280" height="350" rx="28" fill="#ffffff" stroke="#f59e0b" stroke-width="6"/>
    <rect x="490" y="205" width="220" height="280" rx="22" fill="#eff6ff"/>

    <g opacity="0.75">
      <rect x="530" y="245" width="30" height="120" rx="14" fill="#93c5fd"/>
      <rect x="610" y="245" width="30" height="120" rx="14" fill="#93c5fd"/>
      <rect x="555" y="365" width="35" height="105" rx="16" fill="#93c5fd"/>
      <rect x="600" y="365" width="35" height="105" rx="16" fill="#93c5fd"/>
      <circle cx="585" cy="220" r="26" fill="#cbd5e1"/>
    </g>
  </g>

  <g>
    <circle cx="430" cy="235" r="24" fill="#0f172a"/>
    <rect x="404" y="260" width="52" height="120" rx="24" fill="#34d399"/>
    <rect x="388" y="380" width="26" height="118" rx="12" fill="#0f172a"/>
    <rect x="426" y="380" width="26" height="118" rx="12" fill="#0f172a"/>
    <rect x="452" y="304" width="52" height="20" rx="10" fill="#3b82f6"/>
  </g>

  <g>
    <circle cx="790" cy="230" r="26" fill="#111827"/>
    <rect x="758" y="258" width="66" height="150" rx="26" fill="#1d4ed8"/>
    <rect x="744" y="408" width="28" height="118" rx="12" fill="#1f2937"/>
    <rect x="810" y="408" width="28" height="118" rx="12" fill="#1f2937"/>
    <rect x="822" y="302" width="64" height="22" rx="11" fill="#0ea5e9"/>
    <rect x="860" y="430" width="68" height="52" rx="8" fill="#92400e"/>
    <rect x="886" y="420" width="16" height="10" rx="4" fill="#78350f"/>
  </g>

  <g>
    <circle cx="930" cy="230" r="24" fill="#f97316"/>
    <rect x="902" y="258" width="56" height="146" rx="24" fill="#4338ca"/>
    <rect x="886" y="404" width="26" height="116" rx="12" fill="#1f2937"/>
    <rect x="946" y="404" width="26" height="116" rx="12" fill="#1f2937"/>
    <rect x="836" y="300" width="70" height="20" rx="10" fill="#1e40af"/>
  </g>

</svg>
